<svg width="90" height="31" viewBox="0 0 90 31" fill="none" xmlns="http://www.w3.org/2000/svg">
<g clip-path="url(#clip0_523_2972)">
<path d="M4.16016 5.61328V9.32468L11.9178 12.5221V8.80945L4.16016 5.61328Z" fill="white"></path>
<path d="M0.0253906 11.3873V15.0376L11.9263 19.9429V16.2315L0.0253906 11.3262V11.3873Z" fill="white"></path>
<path d="M6.67773 25.2036L11.9235 27.3656V23.6542L6.67773 21.4922V25.2036Z" fill="white"></path>
<path d="M11.9261 1.39237L8.55078 0.00195312V3.71513L11.9261 5.1068V1.39237Z" fill="white"></path>
<path d="M12.7194 30.9221L12.7181 22.7383L11.9199 22.4102L11.9212 30.5939L12.7057 30.9171L12.7194 30.9221Z" fill="white"></path>
<path d="M17.1657 6.6489L11.9199 8.81087V5.09947L17.1657 2.9375V6.6489Z" fill="white"></path>
<path d="M19.6776 16.752V20.4634L11.9199 23.6608V19.9494L19.6776 16.752Z" fill="white"></path>
<path d="M23.8209 7.67832V11.3286L11.9199 16.2339V12.5212L23.8209 7.61719V7.67832Z" fill="white"></path>
<path d="M30.7141 24.9736V5.92383H38.3321C39.4384 5.92383 40.4275 6.15088 41.298 6.60373C42.1686 7.05783 42.8446 7.66912 43.3247 8.44009C43.8049 9.21107 44.0456 10.0507 44.0456 10.9576C44.0456 11.8646 43.8186 12.6218 43.3659 13.2842C42.9119 13.9467 42.3494 14.432 41.6784 14.7401C42.5128 15.0483 43.2736 15.6159 43.9633 16.4405C44.6518 17.2664 44.9972 18.2494 44.9972 19.3934C44.9972 20.3914 44.7291 21.3171 44.194 22.1692C43.659 23.0225 42.9156 23.7024 41.9628 24.2101C41.0111 24.7179 39.936 24.9723 38.7387 24.9723H30.7129L30.7141 24.9736ZM38.3321 13.6797C39.1478 13.6797 39.8051 13.4389 40.304 12.9586C40.8029 12.4783 41.0523 11.8571 41.0523 11.0948C41.0523 10.3326 40.8029 9.71133 40.304 9.23103C39.8051 8.75073 39.1478 8.50996 38.3321 8.50996H33.7075V13.6797H38.3321ZM38.74 22.3875C39.6829 22.3875 40.4624 22.0881 41.0797 21.4892C41.6959 20.8904 42.0052 20.1469 42.0052 19.2574C42.0052 18.3679 41.6971 17.6244 41.0797 17.0256C40.4624 16.4268 39.6829 16.1274 38.74 16.1274H33.7062V22.3862H38.74V22.3875Z" fill="white"></path>
<path d="M52.9378 23.9399C51.3962 23.0691 50.1852 21.8852 49.3059 20.3882C48.4266 18.8911 47.9863 17.2456 47.9863 15.4492C47.9863 13.6527 48.4253 12.0073 49.3059 10.5102C50.1852 9.01319 51.3962 7.82928 52.9378 6.95851C54.4793 6.08773 56.1843 5.65234 58.0526 5.65234C59.775 5.65234 61.3041 6.01537 62.6374 6.74019C63.9706 7.46625 65.027 8.31831 65.8065 9.29762L63.7112 11.0117C63.0402 10.2495 62.2557 9.61949 61.3577 9.12047C60.4597 8.62146 59.3584 8.37196 58.0526 8.37196C56.7468 8.37196 55.5769 8.68509 54.4881 9.31135C53.4005 9.93761 52.5424 10.7947 51.9175 11.8825C51.2914 12.9716 50.9784 14.1592 50.9784 15.4479C50.9784 16.7366 51.2914 17.9243 51.9175 19.0134C52.5437 20.1025 53.4005 20.9595 54.4881 21.5845C55.5769 22.2108 56.7642 22.5239 58.0526 22.5239C59.1776 22.5239 60.2065 22.3156 61.1407 21.8977C62.0749 21.481 62.7683 21.0094 63.2223 20.483V17.4901H59.1414V14.9053H66.2144V21.5721C65.7604 22.1534 65.1306 22.7248 64.3236 23.2862C63.5167 23.8488 62.5725 24.3154 61.4949 24.6871C60.4161 25.0589 59.2686 25.2448 58.0539 25.2448C56.1855 25.2448 54.4806 24.8094 52.939 23.9386L52.9378 23.9399Z" fill="white"></path>
<path d="M74.43 23.7192C72.8884 22.8484 71.6774 21.6645 70.7981 20.1675C69.9188 18.6704 69.4785 17.0249 69.4785 15.2285C69.4785 13.432 69.9175 11.7866 70.7981 10.2895C71.6774 8.79248 72.8884 7.60858 74.43 6.7378C75.9715 5.86703 77.6765 5.43164 79.5448 5.43164C81.4131 5.43164 83.1181 5.86703 84.6596 6.7378C86.2012 7.60858 87.4122 8.79248 88.2915 10.2895C89.1708 11.7866 89.6111 13.432 89.6111 15.2285C89.6111 17.0249 89.1708 18.6704 88.2915 20.1675C87.411 21.6645 86.2012 22.8484 84.6596 23.7192C83.1181 24.5899 81.4131 25.0253 79.5448 25.0253C77.6765 25.0253 75.9715 24.5899 74.43 23.7192ZM83.1081 21.3651C84.1969 20.7388 85.0537 19.8818 85.6786 18.7939C86.3047 17.7061 86.6177 16.5172 86.6177 15.2285C86.6177 13.9398 86.3047 12.7521 85.6786 11.6631C85.0525 10.5752 84.1957 9.7169 83.1081 9.09189C82.0205 8.46563 80.8319 8.1525 79.5435 8.1525C78.2552 8.1525 77.0678 8.46563 75.979 9.09189C74.8914 9.71815 74.0333 10.5752 73.4085 11.6631C72.7824 12.7521 72.4693 13.9398 72.4693 15.2285C72.4693 16.5172 72.7824 17.7048 73.4085 18.7939C74.0346 19.883 74.8914 20.7401 75.979 21.3651C77.0678 21.9913 78.2552 22.3045 79.5435 22.3045C80.8319 22.3045 82.0193 21.9913 83.1081 21.3651Z" fill="white"></path>
</g>
<defs>
<clipPath id="clip0_523_2972">
<rect width="89.6049" height="30.92" fill="white"></rect>
</clipPath>
</defs>
</svg>