<svg width="111" height="30" viewBox="0 0 111 30" fill="none" xmlns="http://www.w3.org/2000/svg">
<g clip-path="url(#clip0_523_2952)">
<path d="M75.6192 7.1673C75.5987 6.29997 76.2836 5.57823 77.1529 5.55568C77.1632 5.55568 77.1735 5.55568 77.1837 5.55568C78.0674 5.52492 78.8097 6.21591 78.8404 7.09964C78.8712 7.98336 78.1802 8.72561 77.2965 8.75637C77.2575 8.75637 77.2206 8.75637 77.1817 8.75637C76.3164 8.75432 75.6151 8.05103 75.6172 7.1837C75.6172 7.17755 75.6172 7.17345 75.6172 7.1673H75.6192Z" fill="white"></path>
<path d="M38.7812 5.59567C38.7812 5.11792 39.015 4.85547 39.3369 4.85547H52.5498C52.8573 4.85547 53.1054 5.10357 53.1054 5.41113C53.1054 5.41318 53.1054 5.41523 53.1054 5.41728V7.05761C53.1054 7.36517 52.8573 7.61327 52.5498 7.61327H41.7954V14.3796H49.0948C49.3983 14.3899 49.6402 14.6318 49.6505 14.9353V16.5449C49.6402 16.8483 49.3983 17.0903 49.0948 17.1005H41.7954V23.871C41.7851 24.1724 41.5411 24.4164 41.2397 24.4266H39.3369C39.0909 24.4328 38.8694 24.2852 38.7812 24.0555V5.59567Z" fill="white"></path>
<path d="M58.4623 10.3379C61.9746 10.3379 64.6381 12.944 64.6381 16.5424C64.6381 16.7762 64.6073 17.2457 64.5786 17.4795C64.554 17.8034 64.2875 18.0556 63.9635 18.0638H54.63C54.6587 19.8785 56.297 21.7546 58.6673 21.7546C60.2195 21.7546 61.1545 21.1989 61.9746 20.6146C62.2678 20.4095 62.5303 20.3213 62.764 20.672L63.5555 21.9022C63.7892 22.1954 63.9061 22.4579 63.496 22.8085C62.5303 23.6656 60.7444 24.4857 58.491 24.4857C54.3901 24.4857 51.7246 21.2666 51.7246 17.4036C51.7328 13.5919 54.3942 10.3379 58.4623 10.3379ZM61.7429 15.8986C61.6835 14.2583 60.3958 12.823 58.4069 12.823C56.2704 12.823 54.9827 14.1968 54.7777 15.8986H61.7429Z" fill="white"></path>
<path d="M75.7148 11.2786C75.7271 10.93 76.0081 10.6491 76.3566 10.6348H77.997C78.3414 10.6594 78.6162 10.9341 78.6408 11.2786V23.5114C78.6264 23.862 78.3476 24.1408 77.997 24.1552H76.3566C76.0019 24.1511 75.7169 23.8661 75.7148 23.5114V11.2786Z" fill="white"></path>
<path d="M88.2392 10.3379C90.347 10.3379 91.8971 11.1294 93.1602 12.6795C93.396 12.9645 93.357 13.3869 93.072 13.6227C93.0638 13.6309 93.0535 13.637 93.0433 13.6452L91.9853 14.615C91.6039 14.9657 91.3415 14.7032 91.1077 14.4695C90.4926 13.7969 89.41 13.1224 88.3273 13.1224C86.0145 13.1224 84.2265 14.9964 84.2265 17.3954C84.2265 19.7944 85.9817 21.7013 88.2351 21.7013C89.9902 21.7013 90.6956 20.7068 91.4255 20.0322C91.6388 19.7677 92.0263 19.7247 92.2908 19.9379C92.3051 19.9502 92.3195 19.9625 92.3318 19.9748L93.2381 20.7068C93.56 20.998 93.7076 21.3219 93.4739 21.6726C92.3195 23.4523 90.3306 24.5144 88.2105 24.4857C84.4357 24.4857 81.3047 21.5003 81.3047 17.4323C81.3047 13.3643 84.4931 10.3379 88.2392 10.3379Z" fill="white"></path>
<path d="M95.9668 11.2786C95.9811 10.928 96.26 10.6491 96.6106 10.6348H98.251C98.5954 10.6594 98.8702 10.9341 98.8948 11.2786V23.5114C98.8804 23.862 98.6016 24.1408 98.251 24.1552H96.6106C96.2559 24.1511 95.9709 23.8661 95.9668 23.5114V11.2786Z" fill="white"></path>
<path d="M101.479 23.1016C101.233 22.9622 101.13 22.6608 101.243 22.4004L101.858 21.1414C102.006 20.8482 102.385 20.76 102.736 20.9651C103.527 21.4039 104.493 21.9595 106.102 21.9595C107.242 21.9595 107.886 21.4039 107.886 20.6432C107.886 19.7369 106.861 19.1505 104.989 18.3016C102.912 17.3666 101.331 16.2512 101.331 14.0306C101.331 12.3328 102.531 10.3398 105.809 10.3398C107.681 10.3398 109.09 10.8976 109.76 11.3363C110.09 11.5496 110.213 11.972 110.052 12.3308L109.584 13.2678C109.424 13.5795 109.043 13.7025 108.731 13.5446C108.723 13.5405 108.715 13.5364 108.706 13.5303C107.8 13.1017 106.812 12.8721 105.809 12.8577C104.638 12.8577 104.083 13.4421 104.083 14.0572C104.083 14.9348 105.049 15.4618 106.394 16.0461C108.881 17.1001 110.755 18.0084 110.755 20.5242C110.755 22.6403 108.94 24.4856 105.928 24.4856C104.339 24.4856 102.787 24.0038 101.479 23.1016Z" fill="white"></path>
<path d="M95.8399 7.1673C95.8194 6.29997 96.5043 5.57823 97.3737 5.55568C97.3839 5.55568 97.3942 5.55568 97.4044 5.55568C98.2881 5.52492 99.0304 6.21591 99.0611 7.09964C99.0919 7.98336 98.4009 8.72561 97.5172 8.75637C97.4782 8.75637 97.4413 8.75637 97.4024 8.75637C96.5371 8.75432 95.8358 8.05103 95.8379 7.1837C95.8379 7.17755 95.8379 7.17345 95.8379 7.1673H95.8399Z" fill="white"></path>
<path d="M72.9314 23.8162C72.9314 24.1791 72.6361 24.4744 72.2732 24.4744C72.2548 24.4744 72.2363 24.4744 72.2178 24.4723C70.4319 24.3124 69.0828 23.5291 68.1683 22.1225C67.5327 21.1301 67.2148 19.701 67.2148 17.8331V6.90027C67.2148 6.53735 67.5081 6.24414 67.871 6.24414H69.4764C69.8394 6.24414 70.1326 6.53735 70.1326 6.90027V17.8331C70.1326 19.1043 70.3069 20.0188 70.6575 20.5745C71.004 21.1547 71.5679 21.4972 72.3532 21.5997C72.6812 21.6407 72.9273 21.9175 72.9314 22.2476V23.8162Z" fill="white"></path>
<path d="M27.0359 16.5769C25.3361 17.2802 23.015 17.0731 15.8652 14.1164C18.826 6.96663 20.3208 5.17867 22.0165 4.47948C23.7122 3.78029 25.9123 4.38106 26.8718 6.70007C27.1425 7.29879 27.3209 7.93647 27.3988 8.59055C27.4132 8.8243 27.4665 9.05395 27.5546 9.27129C27.6469 9.48658 27.772 9.68752 27.9258 9.86386C28.3338 10.3785 28.6619 10.9526 28.8976 11.5677C29.8593 13.8909 28.7336 15.8736 27.0359 16.5769Z" fill="white"></path>
<path d="M7.23154 24.7788C8.92928 24.0755 10.424 22.2875 13.3828 15.1418C6.23709 12.1831 3.91397 11.978 2.21623 12.6711C0.518492 13.3641 -0.607184 15.3571 0.352409 17.6761C0.588206 18.2913 0.918322 18.8674 1.33046 19.3821C1.48424 19.5584 1.61136 19.7594 1.70363 19.9746C1.78975 20.192 1.84306 20.4216 1.85946 20.6554C1.93533 21.3115 2.11166 21.9533 2.38232 22.5561C3.33576 24.8772 5.53175 25.4821 7.23154 24.7788Z" fill="white"></path>
<path d="M17.6777 28.8956C18.2928 28.6578 18.869 28.3276 19.3857 27.9176C19.562 27.7638 19.7609 27.6366 19.9762 27.5444C20.1936 27.4583 20.4232 27.407 20.657 27.3885C21.3131 27.3147 21.9528 27.1425 22.5556 26.8739C24.8747 25.9123 25.4816 23.7163 24.7783 22.0165C24.075 20.3167 22.285 18.824 15.1413 15.8652C12.1806 23.013 11.9714 25.3361 12.6809 27.0338C13.3903 28.7316 15.3587 29.8552 17.6777 28.8956Z" fill="white"></path>
<path d="M4.46924 7.23154C5.17253 8.92928 6.96254 10.424 14.1062 13.3828C17.0731 6.23709 17.2802 3.91397 16.5769 2.21623C15.8736 0.518492 13.8909 -0.607184 11.5719 0.352409C10.9567 0.590257 10.3806 0.920373 9.86387 1.33046C9.68548 1.48424 9.48659 1.60931 9.2713 1.70363C9.05396 1.78975 8.82431 1.84306 8.59056 1.85741C7.93443 1.93123 7.29265 2.10551 6.68778 2.37411C4.37287 3.33576 3.76595 5.53175 4.46924 7.23154Z" fill="white"></path>
</g>
<defs>
<clipPath id="clip0_523_2952">
<rect width="110.755" height="29.2491" fill="white"></rect>
</clipPath>
</defs>
</svg>